<svg xmlns="http://www.w3.org/2000/svg" width="51" height="51" viewBox="0 0 51 51">
    <path fill="#000" fill-rule="nonzero" d="M29.113 22.964h16.806A1.08 1.08 0 0 0 47 21.882C47 12.018 38.984 4 29.121 4c-.597 0-1.08.484-1.08 1.073v16.81c0 .606.474 1.08 1.072 1.08zm1.08-16.766c7.815.527 14.082 6.796 14.61 14.612h-14.61V6.198zM23.55 47C12.772 47 4 38.235 4 27.456 4 16.678 12.763 7.912 23.54 7.912a1.08 1.08 0 0 1 1.081 1.082v17.38h17.386a1.08 1.08 0 0 1 1.082 1.082C43.089 38.235 34.325 47 23.549 47zm-1.082-36.899c-9.088.554-16.305 8.133-16.305 17.355 0 9.592 7.797 17.39 17.387 17.39 9.22 0 16.788-7.218 17.35-16.308H23.55a1.08 1.08 0 0 1-1.082-1.082V10.101z"/>
</svg>
