<svg xmlns="http://www.w3.org/2000/svg" width="51" height="51" viewBox="0 0 51 51">
    <path fill="#000" fill-rule="nonzero" d="M25.504 7C13.641 7 4 15.525 4 26c0 4.14 1.545 8.19 4.364 11.477-.588 1.301-1.449 2.33-2.573 3.059a1.643 1.643 0 0 0-.711 1.74c.15.668.685 1.16 1.361 1.248.676.096 1.37.14 2.055.14 2.177 0 4.162-.466 5.91-1.388C17.75 44.06 21.57 45 25.495 45 37.359 45 47 36.475 47 26S37.367 7 25.504 7zm0 35.847c-3.767 0-7.42-.95-10.563-2.742a1.062 1.062 0 0 0-.536-.14c-.193 0-.386.052-.553.149-1.65.993-3.626 1.467-5.795 1.388 1.133-1.02 1.993-2.311 2.573-3.866a1.09 1.09 0 0 0-.22-1.108C7.618 33.514 6.151 29.876 6.151 26c0-9.29 8.685-16.847 19.353-16.847 10.67 0 19.353 7.558 19.353 16.847 0 9.29-8.684 16.847-19.353 16.847zm5.638-22.094l-8.254 8.217-3.012-3.032a1.07 1.07 0 0 0-1.52 0 1.072 1.072 0 0 0 0 1.52l3.777 3.797a1.07 1.07 0 0 0 1.519 0l9.018-8.972a1.072 1.072 0 0 0 0-1.52 1.073 1.073 0 0 0-1.528-.01z"/>
</svg>
