<svg xmlns="http://www.w3.org/2000/svg" width="51" height="51" viewBox="0 0 51 51">
    <path fill="#000" fill-rule="nonzero" d="M4.004 25.505c.052.885.64 1.63 1.49 1.884l15.753 4.757.578 10.846c.027.43.316.806.728.947a1.066 1.066 0 0 0 1.158-.298l5.57-6.16 7.893 5.459c.35.245.763.377 1.192.377.992 0 1.851-.701 2.062-1.683L46.979 8.28a1.073 1.073 0 0 0-1.456-1.2L5.267 23.446a2.114 2.114 0 0 0-1.263 2.059zm19.821 14.798l-.36-6.843 4.035 2.786-3.675 4.057zm14.506.832L23.965 31.2l20.146-19.468-5.78 29.403zm3.57-30.261L21.983 30.122 6.25 25.373l35.652-14.5z"/>
</svg>
