<?xml version="1.0" encoding="UTF-8"?>
<svg width="486px" height="242px" viewBox="0 0 486 242" version="1.1" xmlns="http://www.w3.org/2000/svg" xmlns:xlink="http://www.w3.org/1999/xlink">
    <!-- Generator: sketchtool 49.3 (51167) - http://www.bohemiancoding.com/sketch -->
    <title>DC426370-9515-442C-952E-A6C81DD1A0FE</title>
    <desc>Created with sketchtool.</desc>
    <defs>
        <polygon id="path-1" points="0 0.2503 27.5495 0.2503 27.5495 39.5003 0 39.5003"></polygon>
        <polygon id="path-3" points="0.8441 0.2497 18.245 0.2497 18.245 36.2997 0.8441 36.2997"></polygon>
    </defs>
    <g id="Symbols" stroke="none" stroke-width="1" fill="none" fill-rule="evenodd">
        <g id="doorsdevelopment">
            <g>
                <g id="Group-3" transform="translate(0.000000, 190.014000)">
                    <mask id="mask-2" fill="white">
                        <use xlink:href="#path-1"></use>
                    </mask>
                    <g id="Clip-2"></g>
                    <path d="M18.3245,33.7743 C19.6745,32.9583 20.7325,31.8333 21.4995,30.3993 C22.2655,28.9663 22.6495,27.3673 22.6495,25.5993 C22.6495,23.8333 22.2655,22.2423 21.4995,20.8253 C20.7325,19.4083 19.6745,18.2923 18.3245,17.4743 C16.9745,16.6583 15.4665,16.2503 13.7995,16.2503 C12.1325,16.2503 10.6245,16.6583 9.2745,17.4743 C7.9245,18.2923 6.8575,19.4083 6.0745,20.8253 C5.2915,22.2423 4.8995,23.8333 4.8995,25.5993 C4.8995,27.3673 5.2915,28.9663 6.0745,30.3993 C6.8575,31.8333 7.9245,32.9583 9.2745,33.7743 C10.6245,34.5913 12.1325,35.0003 13.7995,35.0003 C15.4665,35.0003 16.9745,34.5913 18.3245,33.7743 M26.8495,0.9503 C27.3165,1.4173 27.5495,2.0333 27.5495,2.7993 L27.5495,25.5993 C27.5495,28.2003 26.9415,30.5583 25.7245,32.6743 C24.5075,34.7923 22.8575,36.4583 20.7745,37.6743 C18.6915,38.8913 16.3665,39.5003 13.7995,39.5003 C11.2325,39.5003 8.8905,38.8913 6.7745,37.6743 C4.6575,36.4583 2.9995,34.7923 1.7995,32.6743 C0.5995,30.5583 -0.0005,28.2003 -0.0005,25.5993 C-0.0005,23.0003 0.5575,20.6413 1.6745,18.5243 C2.7915,16.4083 4.3245,14.7503 6.2745,13.5493 C8.2245,12.3493 10.3995,11.7503 12.7995,11.7503 C14.7325,11.7503 16.5325,12.1493 18.1995,12.9503 C19.8665,13.7503 21.2825,14.8673 22.4495,16.2993 L22.4495,2.7993 C22.4495,2.0333 22.6915,1.4173 23.1745,0.9503 C23.6575,0.4833 24.2655,0.2503 24.9995,0.2503 C25.7655,0.2503 26.3825,0.4833 26.8495,0.9503" id="Fill-1" fill="#00C0B6" mask="url(#mask-2)"></path>
                </g>
                <path d="M53.5242,223.8137 C54.8742,223.0137 55.9242,221.9057 56.6742,220.4887 C57.4242,219.0727 57.7992,217.4637 57.7992,215.6637 C57.7992,213.8637 57.4242,212.2477 56.6742,210.8137 C55.9242,209.3807 54.8742,208.2637 53.5242,207.4637 C52.1742,206.6637 50.6492,206.2637 48.9492,206.2637 C47.2492,206.2637 45.7242,206.6637 44.3742,207.4637 C43.0242,208.2637 41.9652,209.3807 41.1992,210.8137 C40.4322,212.2477 40.0492,213.8637 40.0492,215.6637 C40.0492,217.4637 40.4322,219.0727 41.1992,220.4887 C41.9652,221.9057 43.0242,223.0137 44.3742,223.8137 C45.7242,224.6137 47.2492,225.0137 48.9492,225.0137 C50.6492,225.0137 52.1742,224.6137 53.5242,223.8137 M41.7992,227.7387 C39.6992,226.5557 38.0662,224.9137 36.8992,222.8137 C35.7322,220.7137 35.1492,218.3317 35.1492,215.6637 C35.1492,212.9637 35.7322,210.5637 36.8992,208.4637 C38.0662,206.3637 39.6992,204.7217 41.7992,203.5387 C43.8992,202.3557 46.2822,201.7637 48.9492,201.7637 C51.5822,201.7637 53.9412,202.3557 56.0242,203.5387 C58.1072,204.7217 59.7402,206.3637 60.9242,208.4637 C62.1072,210.5637 62.6992,212.9637 62.6992,215.6637 C62.6992,218.3317 62.1152,220.7137 60.9492,222.8137 C59.7822,224.9137 58.1572,226.5557 56.0742,227.7387 C53.9902,228.9217 51.6152,229.5137 48.9492,229.5137 C46.2822,229.5137 43.8992,228.9217 41.7992,227.7387" id="Fill-4" fill="#00C0B6"></path>
                <path d="M87.2737,223.8137 C88.6237,223.0137 89.6727,221.9057 90.4227,220.4887 C91.1727,219.0727 91.5477,217.4637 91.5477,215.6637 C91.5477,213.8637 91.1727,212.2477 90.4227,210.8137 C89.6727,209.3807 88.6237,208.2637 87.2737,207.4637 C85.9227,206.6637 84.3987,206.2637 82.6987,206.2637 C80.9987,206.2637 79.4727,206.6637 78.1237,207.4637 C76.7737,208.2637 75.7147,209.3807 74.9487,210.8137 C74.1807,212.2477 73.7977,213.8637 73.7977,215.6637 C73.7977,217.4637 74.1807,219.0727 74.9487,220.4887 C75.7147,221.9057 76.7737,223.0137 78.1237,223.8137 C79.4727,224.6137 80.9987,225.0137 82.6987,225.0137 C84.3987,225.0137 85.9227,224.6137 87.2737,223.8137 M75.5477,227.7387 C73.4487,226.5557 71.8147,224.9137 70.6487,222.8137 C69.4807,220.7137 68.8987,218.3317 68.8987,215.6637 C68.8987,212.9637 69.4807,210.5637 70.6487,208.4637 C71.8147,206.3637 73.4487,204.7217 75.5477,203.5387 C77.6487,202.3557 80.0317,201.7637 82.6987,201.7637 C85.3317,201.7637 87.6897,202.3557 89.7737,203.5387 C91.8557,204.7217 93.4897,206.3637 94.6727,208.4637 C95.8557,210.5637 96.4487,212.9637 96.4487,215.6637 C96.4487,218.3317 95.8647,220.7137 94.6987,222.8137 C93.5317,224.9137 91.9067,226.5557 89.8237,227.7387 C87.7397,228.9217 85.3647,229.5137 82.6987,229.5137 C80.0317,229.5137 77.6487,228.9217 75.5477,227.7387" id="Fill-6" fill="#00C0B6"></path>
                <path d="M121.5969,202.4641 C122.5969,202.9971 123.0969,203.6631 123.0969,204.4641 C123.0969,204.6971 123.0799,204.8631 123.0469,204.9641 C122.7469,206.0301 122.0799,206.5641 121.0469,206.5641 C120.8799,206.5641 120.6299,206.5301 120.2969,206.4641 C118.9639,206.2311 117.8799,206.1131 117.0469,206.1131 C114.6479,206.1131 112.7139,206.6631 111.2469,207.7641 C109.7809,208.8631 109.0469,210.3471 109.0469,212.2141 L109.0469,226.8141 C109.0469,227.6131 108.8389,228.2311 108.4219,228.6631 C108.0049,229.0971 107.3799,229.3141 106.5469,229.3141 C105.7469,229.3141 105.1299,229.1061 104.6979,228.6891 C104.2639,228.2731 104.0469,227.6481 104.0469,226.8141 L104.0469,204.4641 C104.0469,203.6631 104.2639,203.0471 104.6979,202.6131 C105.1299,202.1811 105.7469,201.9641 106.5469,201.9641 C108.2139,201.9641 109.0469,202.7971 109.0469,204.4641 L109.0469,205.4131 C110.0469,204.2471 111.2809,203.3311 112.7469,202.6631 C114.2139,201.9971 115.7809,201.6631 117.4479,201.6631 C119.2139,201.6631 120.5969,201.9311 121.5969,202.4641" id="Fill-8" fill="#00C0B6"></path>
                <path d="M131.8967,228.4641 C129.8967,227.7641 128.3307,226.8471 127.1977,225.7141 C126.7637,225.2801 126.5467,224.7641 126.5467,224.1631 C126.5467,223.3631 126.8797,222.7141 127.5467,222.2141 C128.1797,221.7471 128.7637,221.5141 129.2967,221.5141 C129.9627,221.5141 130.5967,221.8141 131.1977,222.4131 C131.8307,223.1131 132.7797,223.7221 134.0467,224.2381 C135.3137,224.7561 136.6637,225.0141 138.0967,225.0141 C139.9977,225.0141 141.4717,224.6971 142.5217,224.0641 C143.5727,223.4311 144.0967,222.5811 144.0967,221.5141 C144.0967,220.4811 143.5807,219.6221 142.5467,218.9391 C141.5137,218.2561 139.7637,217.6811 137.2967,217.2141 C130.8967,215.9811 127.6977,213.3471 127.6977,209.3141 C127.6977,207.6811 128.1797,206.2971 129.1467,205.1631 C130.1137,204.0301 131.3797,203.1811 132.9477,202.6131 C134.5137,202.0471 136.1797,201.7641 137.9477,201.7641 C140.1137,201.7641 142.0547,202.1131 143.7717,202.8141 C145.4887,203.5141 146.8467,204.4811 147.8467,205.7141 C148.2797,206.2471 148.4977,206.7801 148.4977,207.3141 C148.4977,207.8811 148.2127,208.3981 147.6467,208.8631 C147.2797,209.1311 146.8137,209.2641 146.2477,209.2641 C145.3797,209.2641 144.5967,208.9471 143.8967,208.3141 C143.0637,207.5471 142.1797,207.0061 141.2477,206.6891 C140.3137,206.3721 139.1797,206.2141 137.8467,206.2141 C136.3137,206.2141 135.0547,206.4721 134.0727,206.9881 C133.0877,207.5061 132.5967,208.2311 132.5967,209.1631 C132.5967,209.8311 132.7637,210.3891 133.0967,210.8391 C133.4297,211.2881 134.0637,211.7061 134.9977,212.0891 C135.9297,212.4721 137.2797,212.8471 139.0467,213.2141 C142.6797,213.9471 145.2547,214.9641 146.7717,216.2641 C148.2887,217.5641 149.0467,219.2471 149.0467,221.3141 C149.0467,222.8471 148.6297,224.2381 147.7967,225.4881 C146.9627,226.7381 145.7387,227.7221 144.1227,228.4391 C142.5047,229.1551 140.5637,229.5141 138.2967,229.5141 C136.0297,229.5141 133.8967,229.1631 131.8967,228.4641" id="Fill-10" fill="#00C0B6"></path>
                <path d="M173.5969,225.3391 C175.2639,224.3561 176.5729,223.0141 177.5219,221.3141 C178.4719,219.6131 178.9479,217.7141 178.9479,215.6131 C178.9479,213.5141 178.4719,211.6131 177.5219,209.9131 C176.5729,208.2141 175.2639,206.8811 173.5969,205.9131 C171.9299,204.9471 170.0639,204.4641 167.9969,204.4641 C165.9299,204.4641 164.0639,204.9471 162.3969,205.9131 C160.7299,206.8811 159.4129,208.2141 158.4479,209.9131 C157.4799,211.6131 156.9969,213.5141 156.9969,215.6131 C156.9969,217.7141 157.4799,219.6131 158.4479,221.3141 C159.4129,223.0141 160.7299,224.3561 162.3969,225.3391 C164.0639,226.3221 165.9299,226.8141 167.9969,226.8141 C170.0639,226.8141 171.9299,226.3221 173.5969,225.3391 M181.5469,190.6631 C181.8139,190.9311 181.9479,191.2971 181.9479,191.7641 L181.9479,215.8141 L181.9479,215.9131 C181.9129,218.4811 181.2799,220.8141 180.0469,222.9131 C178.8139,225.0141 177.1389,226.6551 175.0219,227.8391 C172.9049,229.0231 170.5639,229.6131 167.9969,229.6131 C165.3639,229.6131 162.9799,229.0061 160.8469,227.7881 C158.7129,226.5721 157.0379,224.8981 155.8229,222.7641 C154.6049,220.6311 153.9969,218.2471 153.9969,215.6131 C153.9969,213.0141 154.6049,210.6481 155.8229,208.5141 C157.0379,206.3811 158.7129,204.7061 160.8469,203.4881 C162.9799,202.2731 165.3639,201.6631 167.9969,201.6631 C170.3639,201.6631 172.5049,202.1721 174.4219,203.1891 C176.3379,204.2061 177.8469,205.5971 178.9479,207.3631 L178.9479,191.7641 C178.9479,191.2971 179.0879,190.9311 179.3719,190.6631 C179.6549,190.3981 180.0139,190.2641 180.4479,190.2641 C180.9129,190.2641 181.2799,190.3981 181.5469,190.6631" id="Fill-12" fill="#000000"></path>
                <path d="M195.7219,207.1135 C193.9389,208.8465 192.8799,211.1315 192.5469,213.9645 L211.9969,213.9645 C211.7639,211.1315 210.7639,208.8465 208.9969,207.1135 C207.2299,205.3815 204.9969,204.5135 202.2969,204.5135 C199.6979,204.5135 197.5049,205.3815 195.7219,207.1135 M208.8229,203.4385 C210.7389,204.5895 212.2299,206.1805 213.2969,208.2145 C214.3639,210.2475 214.8979,212.5635 214.8979,215.1635 C214.8979,215.5965 214.7639,215.9385 214.4969,216.1885 C214.2299,216.4385 213.8799,216.5635 213.4479,216.5635 L192.4969,216.5635 C192.5969,218.5305 193.1139,220.2885 194.0469,221.8395 C194.9799,223.3885 196.2299,224.5965 197.7969,225.4645 C199.3639,226.3315 201.1139,226.7635 203.0469,226.7635 C204.3469,226.7635 205.6559,226.5385 206.9719,226.0895 C208.2879,225.6385 209.3299,225.0475 210.0969,224.3135 C210.4299,224.0475 210.7809,223.9135 211.1479,223.9135 C211.5139,223.9135 211.8139,224.0135 212.0469,224.2145 C212.4129,224.5135 212.5969,224.8635 212.5969,225.2635 C212.5969,225.5965 212.4479,225.9135 212.1479,226.2145 C211.0799,227.1805 209.6889,227.9805 207.9719,228.6135 C206.2549,229.2475 204.6139,229.5635 203.0469,229.5635 C200.4129,229.5635 198.0729,228.9715 196.0229,227.7885 C193.9719,226.6055 192.3639,224.9565 191.1979,222.8395 C190.0309,220.7215 189.4479,218.3315 189.4479,215.6635 C189.4479,212.9645 189.9889,210.5555 191.0729,208.4385 C192.1559,206.3225 193.6719,204.6725 195.6219,203.4885 C197.5729,202.3055 199.7969,201.7145 202.2969,201.7145 C204.7299,201.7145 206.9059,202.2885 208.8229,203.4385" id="Fill-14" fill="#000000"></path>
                <path d="M242.7473,203.3137 C242.7473,203.5467 242.7143,203.7307 242.6473,203.8637 L231.3973,228.3137 C231.0633,229.0137 230.5303,229.3637 229.7973,229.3637 C229.4973,229.3637 229.2233,229.2727 228.9733,229.0887 C228.7233,228.9057 228.5303,228.6477 228.3973,228.3137 L216.9973,203.9137 C216.9303,203.7807 216.8973,203.5967 216.8973,203.3637 C216.8973,202.7637 217.1803,202.3317 217.7473,202.0637 C217.9473,201.9637 218.1473,201.9137 218.3483,201.9137 C218.9143,201.9137 219.3303,202.1977 219.5983,202.7637 L229.8483,224.9637 L239.9473,202.7137 C240.2143,202.1477 240.6473,201.8637 241.2473,201.8637 C241.4803,201.8637 241.6973,201.9137 241.8973,202.0137 C242.4643,202.2807 242.7473,202.7137 242.7473,203.3137" id="Fill-16" fill="#000000"></path>
                <path d="M251.5217,207.1135 C249.7387,208.8465 248.6797,211.1315 248.3467,213.9645 L267.7967,213.9645 C267.5637,211.1315 266.5637,208.8465 264.7967,207.1135 C263.0297,205.3815 260.7967,204.5135 258.0967,204.5135 C255.4977,204.5135 253.3047,205.3815 251.5217,207.1135 M264.6227,203.4385 C266.5387,204.5895 268.0297,206.1805 269.0967,208.2145 C270.1637,210.2475 270.6977,212.5635 270.6977,215.1635 C270.6977,215.5965 270.5637,215.9385 270.2967,216.1885 C270.0297,216.4385 269.6797,216.5635 269.2477,216.5635 L248.2967,216.5635 C248.3967,218.5305 248.9137,220.2885 249.8467,221.8395 C250.7797,223.3885 252.0297,224.5965 253.5967,225.4645 C255.1637,226.3315 256.9137,226.7635 258.8467,226.7635 C260.1467,226.7635 261.4557,226.5385 262.7717,226.0895 C264.0877,225.6385 265.1297,225.0475 265.8967,224.3135 C266.2297,224.0475 266.5807,223.9135 266.9477,223.9135 C267.3137,223.9135 267.6137,224.0135 267.8467,224.2145 C268.2127,224.5135 268.3967,224.8635 268.3967,225.2635 C268.3967,225.5965 268.2477,225.9135 267.9477,226.2145 C266.8797,227.1805 265.4887,227.9805 263.7717,228.6135 C262.0547,229.2475 260.4137,229.5635 258.8467,229.5635 C256.2127,229.5635 253.8727,228.9715 251.8227,227.7885 C249.7717,226.6055 248.1637,224.9565 246.9977,222.8395 C245.8307,220.7215 245.2477,218.3315 245.2477,215.6635 C245.2477,212.9645 245.7887,210.5555 246.8727,208.4385 C247.9557,206.3225 249.4717,204.6725 251.4217,203.4885 C253.3727,202.3055 255.5967,201.7145 258.0967,201.7145 C260.5297,201.7145 262.7057,202.2885 264.6227,203.4385" id="Fill-18" fill="#000000"></path>
                <path d="M278.0217,227.0139 C276.8047,225.4809 276.1967,223.4969 276.1967,221.0639 L276.1967,191.7639 C276.1967,191.2969 276.3377,190.9309 276.6217,190.6629 C276.9047,190.3979 277.2627,190.2639 277.6967,190.2639 C278.1637,190.2639 278.5297,190.3979 278.7967,190.6629 C279.0627,190.9309 279.1967,191.2969 279.1967,191.7639 L279.1967,221.0639 C279.1967,222.5969 279.5217,223.8559 280.1717,224.8389 C280.8217,225.8229 281.6637,226.3139 282.6967,226.3139 L283.9467,226.3139 C284.3127,226.3139 284.6137,226.4479 284.8467,226.7139 C285.0797,226.9809 285.1967,227.3469 285.1967,227.8139 C285.1967,228.2469 285.0627,228.6059 284.7967,228.8889 C284.5297,229.1719 284.1637,229.3139 283.6967,229.3139 L282.6967,229.3139 C280.7967,229.3139 279.2387,228.5469 278.0217,227.0139" id="Fill-20" fill="#000000"></path>
                <path d="M308.2961,225.3635 C309.9631,224.3975 311.2721,223.0635 312.2211,221.3635 C313.1711,219.6635 313.6471,217.7635 313.6471,215.6635 C313.6471,213.5635 313.1711,211.6635 312.2211,209.9645 C311.2721,208.2635 309.9631,206.9225 308.2961,205.9385 C306.6291,204.9565 304.7631,204.4645 302.6961,204.4645 C300.6291,204.4645 298.7631,204.9565 297.0961,205.9385 C295.4291,206.9225 294.1121,208.2635 293.1471,209.9645 C292.1791,211.6635 291.6961,213.5635 291.6961,215.6635 C291.6961,217.7635 292.1791,219.6635 293.1471,221.3635 C294.1121,223.0635 295.4291,224.3975 297.0961,225.3635 C298.7631,226.3315 300.6291,226.8135 302.6961,226.8135 C304.7631,226.8135 306.6291,226.3315 308.2961,225.3635 M295.5461,227.7885 C293.4121,226.5725 291.7371,224.8975 290.5221,222.7635 C289.3041,220.6315 288.6961,218.2635 288.6961,215.6635 C288.6961,213.0305 289.3041,210.6475 290.5221,208.5135 C291.7371,206.3815 293.4121,204.7065 295.5461,203.4885 C297.6791,202.2725 300.0631,201.6635 302.6961,201.6635 C305.2961,201.6635 307.6621,202.2725 309.7961,203.4885 C311.9291,204.7065 313.6041,206.3815 314.8211,208.5135 C316.0371,210.6475 316.6471,213.0305 316.6471,215.6635 C316.6471,218.2635 316.0371,220.6315 314.8211,222.7635 C313.6041,224.8975 311.9291,226.5725 309.7961,227.7885 C307.6621,229.0065 305.2961,229.6135 302.6961,229.6135 C300.0631,229.6135 297.6791,229.0065 295.5461,227.7885" id="Fill-22" fill="#000000"></path>
                <path d="M343.696,225.3635 C345.363,224.3975 346.679,223.0635 347.646,221.3635 C348.613,219.6635 349.096,217.7635 349.096,215.6635 C349.096,213.5635 348.613,211.6635 347.646,209.9645 C346.679,208.2635 345.363,206.9225 343.696,205.9385 C342.029,204.9565 340.163,204.4645 338.096,204.4645 C336.029,204.4645 334.162,204.9565 332.495,205.9385 C330.828,206.9225 329.521,208.2635 328.571,209.9645 C327.62,211.6635 327.146,213.5635 327.146,215.6635 C327.146,217.7635 327.62,219.6635 328.571,221.3635 C329.521,223.0635 330.828,224.3975 332.495,225.3635 C334.162,226.3315 336.029,226.8135 338.096,226.8135 C340.163,226.8135 342.029,226.3315 343.696,225.3635 M345.246,203.4885 C347.379,204.7065 349.054,206.3815 350.271,208.5135 C351.488,210.6475 352.096,213.0305 352.096,215.6635 C352.096,218.2635 351.488,220.6315 350.271,222.7635 C349.054,224.8975 347.379,226.5725 345.246,227.7885 C343.113,229.0065 340.729,229.6135 338.096,229.6135 C335.729,229.6135 333.587,229.1055 331.671,228.0895 C329.753,227.0725 328.245,225.6805 327.146,223.9135 L327.146,239.5135 C327.146,239.9795 327.012,240.3465 326.745,240.6135 C326.479,240.8805 326.113,241.0135 325.646,241.0135 C325.212,241.0135 324.854,240.8805 324.571,240.6135 C324.287,240.3465 324.146,239.9795 324.146,239.5135 L324.146,215.4645 L324.146,215.3635 C324.179,212.7975 324.812,210.4645 326.046,208.3635 C327.279,206.2635 328.953,204.6225 331.071,203.4385 C333.187,202.2565 335.529,201.6635 338.096,201.6635 C340.729,201.6635 343.113,202.2725 345.246,203.4885" id="Fill-24" fill="#000000"></path>
                <path d="M393.7966,203.1135 C395.3626,204.1135 396.5786,205.5065 397.4456,207.2885 C398.3136,209.0725 398.7466,211.0965 398.7466,213.3635 L398.7466,227.8135 C398.7466,228.2475 398.6126,228.6055 398.3466,228.8885 C398.0786,229.1725 397.7126,229.3135 397.2466,229.3135 C396.8136,229.3135 396.4536,229.1725 396.1716,228.8885 C395.8876,228.6055 395.7466,228.2475 395.7466,227.8135 L395.7466,213.3635 C395.7466,210.7975 395.0636,208.6975 393.6956,207.0635 C392.3286,205.4305 390.5786,204.6135 388.4456,204.6135 C386.1126,204.6135 384.2296,205.3815 382.7966,206.9135 C381.3626,208.4475 380.6796,210.4805 380.7466,213.0135 L380.7466,213.3635 L380.7466,227.8135 C380.7466,228.2475 380.6126,228.6055 380.3466,228.8885 C380.0786,229.1725 379.7126,229.3135 379.2466,229.3135 C378.8136,229.3135 378.4536,229.1725 378.1716,228.8885 C377.8876,228.6055 377.7466,228.2475 377.7466,227.8135 L377.7466,213.3635 C377.7466,210.7975 377.0636,208.6975 375.6956,207.0635 C374.3286,205.4305 372.5786,204.6135 370.4456,204.6135 C368.1466,204.6135 366.2626,205.3465 364.7966,206.8135 C363.3286,208.2805 362.5966,210.1805 362.5966,212.5135 L362.5966,227.8135 C362.5966,228.2475 362.4626,228.6055 362.1956,228.8885 C361.9296,229.1725 361.5636,229.3135 361.0966,229.3135 C360.6626,229.3135 360.3046,229.1725 360.0216,228.8885 C359.7376,228.6055 359.5966,228.2475 359.5966,227.8135 L359.5966,203.4645 C359.5966,202.9975 359.7376,202.6315 360.0216,202.3635 C360.3046,202.0965 360.6626,201.9645 361.0966,201.9645 C361.5636,201.9645 361.9296,202.0965 362.1956,202.3635 C362.4626,202.6315 362.5966,202.9975 362.5966,203.4645 L362.5966,205.4135 C363.5286,204.2145 364.6796,203.2805 366.0466,202.6135 C367.4126,201.9475 368.8796,201.6135 370.4456,201.6135 C372.3796,201.6135 374.1126,202.0895 375.6466,203.0385 C377.1796,203.9885 378.3966,205.2975 379.2966,206.9645 C380.1956,205.2975 381.4456,203.9885 383.0466,203.0385 C384.6466,202.0895 386.4456,201.6135 388.4456,201.6135 C390.4456,201.6135 392.2296,202.1135 393.7966,203.1135" id="Fill-26" fill="#000000"></path>
                <path d="M412.0212,207.1135 C410.2372,208.8465 409.1782,211.1315 408.8452,213.9645 L428.2952,213.9645 C428.0622,211.1315 427.0622,208.8465 425.2952,207.1135 C423.5292,205.3815 421.2952,204.5135 418.5952,204.5135 C415.9962,204.5135 413.8032,205.3815 412.0212,207.1135 M425.1212,203.4385 C427.0372,204.5895 428.5292,206.1805 429.5952,208.2145 C430.6622,210.2475 431.1962,212.5635 431.1962,215.1635 C431.1962,215.5965 431.0622,215.9385 430.7952,216.1885 C430.5292,216.4385 430.1782,216.5635 429.7462,216.5635 L408.7952,216.5635 C408.8962,218.5305 409.4122,220.2885 410.3452,221.8395 C411.2792,223.3885 412.5292,224.5965 414.0952,225.4645 C415.6622,226.3315 417.4122,226.7635 419.3452,226.7635 C420.6462,226.7635 421.9542,226.5385 423.2712,226.0895 C424.5872,225.6385 425.6282,225.0475 426.3962,224.3135 C426.7282,224.0475 427.0792,223.9135 427.4462,223.9135 C427.8122,223.9135 428.1122,224.0135 428.3452,224.2145 C428.7122,224.5135 428.8962,224.8635 428.8962,225.2635 C428.8962,225.5965 428.7462,225.9135 428.4462,226.2145 C427.3782,227.1805 425.9872,227.9805 424.2712,228.6135 C422.5532,229.2475 420.9122,229.5635 419.3452,229.5635 C416.7122,229.5635 414.3712,228.9715 412.3212,227.7885 C410.2712,226.6055 408.6622,224.9565 407.4962,222.8395 C406.3292,220.7215 405.7462,218.3315 405.7462,215.6635 C405.7462,212.9645 406.2872,210.5555 407.3712,208.4385 C408.4542,206.3225 409.9702,204.6725 411.9202,203.4885 C413.8712,202.3055 416.0952,201.7145 418.5952,201.7145 C421.0292,201.7145 423.2042,202.2885 425.1212,203.4385" id="Fill-28" fill="#000000"></path>
                <path d="M456.7205,203.1135 C458.6365,204.1135 460.1365,205.5725 461.2205,207.4885 C462.3025,209.4055 462.8455,211.6975 462.8455,214.3635 L462.8455,227.8135 C462.8455,228.2475 462.7025,228.6055 462.4195,228.8885 C462.1365,229.1725 461.7785,229.3135 461.3455,229.3135 C460.9115,229.3135 460.5525,229.1725 460.2705,228.8885 C459.9865,228.6055 459.8455,228.2475 459.8455,227.8135 L459.8455,214.3635 C459.8455,211.1975 458.9525,208.7805 457.1695,207.1135 C455.3865,205.4475 453.0615,204.6135 450.1955,204.6135 C448.4275,204.6135 446.8205,204.9565 445.3695,205.6385 C443.9195,206.3225 442.7785,207.2725 441.9455,208.4885 C441.1115,209.7065 440.6955,211.0475 440.6955,212.5135 L440.6955,227.8135 C440.6955,228.2475 440.5615,228.6055 440.2945,228.8885 C440.0285,229.1725 439.6615,229.3135 439.1955,229.3135 C438.7615,229.3135 438.4035,229.1725 438.1195,228.8885 C437.8365,228.6055 437.6955,228.2475 437.6955,227.8135 L437.6955,203.4645 C437.6955,202.9975 437.8365,202.6315 438.1195,202.3635 C438.4035,202.0965 438.7615,201.9645 439.1955,201.9645 C439.6615,201.9645 440.0285,202.0965 440.2945,202.3635 C440.5615,202.6315 440.6955,202.9975 440.6955,203.4645 L440.6955,206.0635 C441.8275,204.6635 443.2115,203.5725 444.8455,202.7885 C446.4785,202.0065 448.2615,201.6135 450.1955,201.6135 C452.6275,201.6135 454.8025,202.1135 456.7205,203.1135" id="Fill-30" fill="#000000"></path>
                <g id="Group-34" transform="translate(467.000000, 193.014000)">
                    <mask id="mask-4" fill="white">
                        <use xlink:href="#path-3"></use>
                    </mask>
                    <g id="Clip-33"></g>
                    <path d="M17.8191,33.6747 C18.1021,33.9577 18.2451,34.3327 18.2451,34.7997 C18.2451,35.2337 18.1021,35.5917 17.8191,35.8747 C17.5361,36.1577 17.1611,36.2997 16.6941,36.2997 L15.5451,36.2997 C13.7111,36.2997 12.0771,35.8837 10.6441,35.0497 C9.2111,34.2167 8.0941,33.0747 7.2951,31.6247 C6.4951,30.1747 6.0941,28.5327 6.0941,26.6997 L6.0941,12.6497 L2.1941,12.6497 C1.7951,12.6497 1.4691,12.5247 1.2191,12.2747 C0.9691,12.0247 0.8441,11.6997 0.8441,11.2997 C0.8441,10.8997 0.9691,10.5747 1.2191,10.3247 C1.4691,10.0747 1.7951,9.9497 2.1941,9.9497 L6.0941,9.9497 L6.0941,1.7997 C6.0941,1.3327 6.2361,0.9577 6.5191,0.6747 C6.8021,0.3917 7.1611,0.2497 7.5941,0.2497 C8.0611,0.2497 8.4361,0.3917 8.7191,0.6747 C9.0031,0.9577 9.1441,1.3327 9.1441,1.7997 L9.1441,9.9497 L15.7451,9.9497 C16.1441,9.9497 16.4691,10.0747 16.7191,10.3247 C16.9691,10.5747 17.0941,10.8997 17.0941,11.2997 C17.0941,11.6997 16.9691,12.0247 16.7191,12.2747 C16.4691,12.5247 16.1441,12.6497 15.7451,12.6497 L9.1441,12.6497 L9.1441,26.6997 C9.1441,28.6337 9.7451,30.2077 10.9441,31.4247 C12.1441,32.6417 13.6941,33.2497 15.5941,33.2497 L16.6941,33.2497 C17.1611,33.2497 17.5361,33.3917 17.8191,33.6747" id="Fill-32" fill="#000000" mask="url(#mask-4)"></path>
                </g>
                <path d="M237.7668,3.0021 C237.0108,3.0021 236.3268,3.2271 235.7848,3.6631 C235.0358,4.2671 234.6218,5.2241 234.6218,6.3561 L234.6218,153.6451 C234.6218,154.7771 235.0358,155.7331 235.7848,156.3371 C236.5348,156.9391 237.5568,157.1411 238.6638,156.8981 L296.9408,144.1611 C299.4788,143.6061 301.6218,140.9431 301.6218,138.3461 L301.6218,21.6551 C301.6218,19.0571 299.4788,16.3941 296.9408,15.8401 L238.6638,3.1031 C238.3578,3.0351 238.0568,3.0021 237.7668,3.0021 M237.7508,160.0001 C236.3198,160.0001 234.9898,159.5481 233.9028,158.6731 C232.4318,157.4891 231.6218,155.7031 231.6218,153.6451 L231.6218,6.3561 C231.6218,4.2971 232.4318,2.5111 233.9038,1.3271 C235.3728,0.1431 237.2918,-0.2669 239.3048,0.1711 L297.5808,12.9081 C301.4638,13.7571 304.6218,17.6811 304.6218,21.6551 L304.6218,138.3461 C304.6218,142.3191 301.4638,146.2431 297.5808,147.0931 L239.3048,159.8291 C238.7788,159.9431 238.2578,160.0001 237.7508,160.0001" id="Fill-35" fill="#000000"></path>
                <path d="M180.6223,129.7268 C180.6223,133.0268 183.2513,136.3408 186.4653,137.0908 L218.7793,144.6358 C221.9933,145.3858 224.6223,143.2998 224.6223,139.9998 L224.6223,19.9998 C224.6223,16.7008 221.9933,14.6138 218.7793,15.3648 L186.4653,22.9098 C183.2513,23.6598 180.6223,26.9728 180.6223,30.2738 L180.6223,129.7268 Z" id="Fill-37" fill="#00C0B6"></path>
                <path d="M244.6262,80.0002 C244.6262,77.2382 246.8652,75.0002 249.6262,75.0002 C252.3882,75.0002 254.6262,77.2382 254.6262,80.0002 C254.6262,82.7622 252.3882,85.0002 249.6262,85.0002 C246.8652,85.0002 244.6262,82.7622 244.6262,80.0002" id="Fill-39" fill="#00C0B6"></path>
            </g>
        </g>
    </g>
</svg>