<svg xmlns="http://www.w3.org/2000/svg" width="51" height="51" viewBox="0 0 51 51">
    <path fill="#222" fill-rule="nonzero" d="M4 25.5C4 37.352 13.648 47 25.5 47S47 37.352 47 25.5 37.352 4 25.5 4 4 13.648 4 25.5zm8.986 14.727a59.467 59.467 0 0 1 6.702-3.915c.486-.238.794-.723.794-1.27v-2.699c0-.194-.053-.379-.15-.546-.547-.926-.926-2.038-1.12-3.299a1.072 1.072 0 0 0-.776-.873c-.106-.132-.405-.59-.785-1.922-.3-1.058-.3-1.579-.273-1.79.326 0 .644-.15.847-.415.229-.29.29-.679.167-1.023a6.152 6.152 0 0 1-.15-3.677c.282-1.2.926-2.328 1.923-3.351a9.237 9.237 0 0 1 1.816-1.5c.01-.008.027-.017.036-.026a6.78 6.78 0 0 1 1.702-.873h.008a5.435 5.435 0 0 1 1.526-.282c1.446-.124 2.743.14 3.88.82 1.253.688 1.755 1.587 1.755 1.587.177.335.512.556.882.582.009 0 .485.089.917.653.512.679 1.235 2.443.353 6.702-.097.485.141.97.573 1.182.035.167.08.679-.256 1.87-.3 1.058-.546 1.56-.696 1.79-.185-.027-.388 0-.565.07-.335.141-.582.45-.643.803-.177.996-.45 1.887-.82 2.645-.071.15-.106.309-.106.468v3.121c0 .547.3 1.032.793 1.27.812.397 3.537 1.782 6.703 3.916a19.239 19.239 0 0 1-12.514 4.612 19.354 19.354 0 0 1-12.523-4.63zM25.5 6.161c10.662 0 19.34 8.677 19.34 19.339 0 5.097-1.985 9.745-5.221 13.202-3.025-2.073-5.715-3.51-6.932-4.119v-2.416c.291-.635.53-1.34.706-2.09.864-.326 1.472-1.332 2.046-3.351.52-1.843.476-3.14-.141-3.88.643-3.537.352-6.147-.873-7.76-.635-.847-1.376-1.218-1.888-1.377-.361-.511-1.093-1.34-2.31-2.01-1.508-.891-3.237-1.261-5.097-1.103a7.689 7.689 0 0 0-2.082.397h-.008c-.759.256-1.5.635-2.214 1.129-.811.52-1.56 1.138-2.205 1.817-1.27 1.296-2.098 2.76-2.46 4.32a8.226 8.226 0 0 0-.097 3.846c-.115.088-.23.185-.326.308-.635.768-.688 1.993-.159 3.872.353 1.243.811 2.522 1.605 3.113.238 1.19.617 2.275 1.138 3.228v1.957a62.588 62.588 0 0 0-6.932 4.119C8.154 35.245 6.16 30.597 6.16 25.5c0-10.662 8.678-19.34 19.34-19.34z"/>
</svg>
