<svg xmlns="http://www.w3.org/2000/svg" width="63" height="80" viewBox="0 0 63 80">
    <g fill="none" fill-rule="evenodd">
        <path fill="#000" d="M29.546 1.501c-.378 0-.72.113-.991.33-.375.303-.581.781-.581 1.347v73.645c0 .566.206 1.044.581 1.346.375.3.886.402 1.44.28l29.138-6.368c1.269-.278 2.34-1.61 2.34-2.908V10.828c0-1.3-1.071-2.63-2.34-2.908L29.994 1.552a2.07 2.07 0 0 0-.448-.051M29.538 80c-.715 0-1.38-.226-1.924-.663-.736-.592-1.14-1.485-1.14-2.514V3.178c0-1.03.404-1.922 1.14-2.514.735-.592 1.694-.797 2.701-.578l29.138 6.368c1.941.425 3.52 2.387 3.52 4.374v58.345c0 1.987-1.578 3.949-3.52 4.374l-29.138 6.368a3.672 3.672 0 0 1-.777.085"/>
        <path fill="#00C0B6" d="M.974 64.863c0 1.65 1.315 3.307 2.921 3.682l16.157 3.773c1.607.375 2.922-.668 2.922-2.318V10c0-1.65-1.315-2.693-2.922-2.318L3.895 11.455C2.29 11.83.974 13.486.974 15.137v49.726zM32.976 40a2.5 2.5 0 1 1 5 0 2.5 2.5 0 0 1-5 0"/>
    </g>
</svg>
