<svg xmlns="http://www.w3.org/2000/svg" width="80" height="80" viewBox="0 0 80 80">
    <g fill="none" fill-rule="evenodd">
        <circle cx="40" cy="40" r="40" fill="#00C0B6"/>
        <path fill="#FFF" fill-rule="nonzero" d="M19 39.5C19 51.352 28.648 61 40.5 61S62 51.352 62 39.5 52.352 18 40.5 18 19 27.648 19 39.5zm9 14.888a59.416 59.416 0 0 1 6.692-3.901c.485-.237.793-.72.793-1.265v-2.689c0-.193-.053-.378-.15-.544-.546-.923-.924-2.03-1.118-3.286a1.07 1.07 0 0 0-.775-.87c-.106-.132-.405-.589-.784-1.915-.3-1.055-.3-1.573-.273-1.784.326 0 .643-.15.846-.413.229-.29.29-.676.167-1.019a6.116 6.116 0 0 1-.15-3.663c.282-1.195.925-2.32 1.92-3.339a9.22 9.22 0 0 1 1.814-1.493c.009-.01.026-.018.035-.027a6.775 6.775 0 0 1 1.7-.87h.009a5.438 5.438 0 0 1 1.523-.28c1.444-.124 2.739.14 3.875.816 1.25.686 1.752 1.582 1.752 1.582.176.334.51.553.88.58.01 0 .485.087.916.65.511.676 1.233 2.433.353 6.677-.097.483.14.966.572 1.177.035.167.08.676-.255 1.863-.3 1.054-.546 1.555-.696 1.783-.185-.026-.387 0-.564.07-.334.14-.58.448-.642.8-.177.993-.45 1.88-.82 2.635-.07.15-.105.308-.105.466v3.11c0 .545.3 1.028.793 1.265.81.396 3.53 1.775 6.692 3.901A19.237 19.237 0 0 1 40.504 59 19.352 19.352 0 0 1 28 54.388zM40.5 20C51.25 20 60 28.8 60 39.612c0 5.17-2 9.882-5.264 13.388-3.05-2.102-5.762-3.56-6.99-4.176v-2.45c.294-.645.534-1.36.712-2.12.872-.331 1.485-1.35 2.063-3.399.525-1.869.48-3.183-.142-3.935.649-3.586.356-6.233-.88-7.87-.64-.858-1.388-1.234-1.903-1.395-.365-.518-1.103-1.36-2.33-2.039-1.52-.903-3.263-1.279-5.14-1.118a7.714 7.714 0 0 0-2.098.403h-.009a8.96 8.96 0 0 0-2.232 1.145 12.032 12.032 0 0 0-2.223 1.842c-1.28 1.314-2.116 2.799-2.48 4.382a8.388 8.388 0 0 0-.098 3.9c-.116.089-.232.187-.33.312-.64.778-.693 2.021-.16 3.926.356 1.261.819 2.558 1.619 3.157.24 1.207.622 2.307 1.147 3.273v1.986A63.026 63.026 0 0 0 26.272 53 19.606 19.606 0 0 1 21 39.612C21 28.8 29.75 20 40.5 20z"/>
    </g>
</svg>
