<svg xmlns="http://www.w3.org/2000/svg" width="80" height="80" viewBox="0 0 80 80">
    <g fill="none" fill-rule="evenodd">
        <circle cx="40" cy="40" r="40" fill="#00C0B6"/>
        <path fill="#FFF" fill-rule="nonzero" d="M40.505 19C26.987 19 16 28.646 16 40.5c0 4.684 1.761 9.268 4.973 12.988-.67 1.471-1.651 2.635-2.932 3.46a1.854 1.854 0 0 0-.81 1.97c.17.755.78 1.312 1.55 1.411.771.11 1.562.16 2.342.16 2.482 0 4.743-.528 6.734-1.572C31.67 60.936 36.022 62 40.495 62 54.013 62 65 52.354 65 40.5S54.023 19 40.505 19zm0 40.564c-4.293 0-8.455-1.074-12.037-3.103-.19-.11-.4-.16-.61-.16-.22 0-.441.06-.631.17-1.881 1.124-4.133 1.66-6.604 1.571 1.29-1.153 2.271-2.615 2.932-4.375.16-.428.06-.915-.25-1.253-3.182-3.411-4.853-7.528-4.853-11.914 0-10.511 9.896-19.064 22.053-19.064S62.559 29.99 62.559 40.5s-9.897 19.064-22.054 19.064zm6.424-25l-9.406 9.297-3.432-3.43a1.225 1.225 0 0 0-1.731 0 1.207 1.207 0 0 0 0 1.72l4.303 4.296a1.223 1.223 0 0 0 1.73 0L48.67 36.293c.48-.477.48-1.243 0-1.72a1.228 1.228 0 0 0-1.741-.01z"/>
    </g>
</svg>
